<?xml version="1.0" encoding="UTF-8" standalone="no"?> <svg width="180" height="180" viewBox="0 0 180 180" version="1.1" xmlns="http://www.w3.org/2000/svg" xmlns:svg="http://www.w3.org/2000/svg"> <g> <path fill="#22333B" d="m 100.89408,8.3835651 c -44.970421,0 -81.616972,36.6465509 -81.616972,81.6169729 0,44.970422 36.646551,81.615892 81.616972,81.615892 23.606,0 44.90703,-10.10747 59.82881,-26.20592 l -12.83127,-11.91099 c -11.67441,12.61318 -28.38015,20.49632 -46.99754,20.49632 -35.447217,0 -63.994235,-28.54807 -63.994235,-63.995302 0,-15.183549 5.241575,-29.098573 14.015718,-40.048748 v -9.128687 h 8.947208 c 11.094328,-9.256481 25.390246,-14.8168 41.031309,-14.8168 10.55351,0 20.48589,2.546333 29.24488,7.035778 l 8.19229,-15.514795 c -11.225,-5.827598 -23.95079,-9.1437209 -37.43717,-9.1437209 z m 0,19.9400769 c -13.922466,0 -26.794149,4.661424 -37.138649,12.499461 H 65.23303 V 55.14057 H 50.915563 v -1.196253 c -7.352913,10.153887 -11.698378,22.61532 -11.698378,36.056221 0,33.958482 27.718415,61.676892 61.676895,61.676892 17.83316,0 33.93741,-7.65182 45.2182,-19.82947 l -12.83236,-11.91101 c -4.73145,5.11939 -10.66939,9.10457 -17.37467,11.51691 v 5.46475 h -14.31747 v -2.87251 c -0.23106,0.003 -0.46177,0.01 -0.6937,0.01 -0.62996,0 -1.255918,-0.016 -1.879218,-0.0419 v 2.90474 H 84.697398 v -5.90503 C 68.340038,124.59508 56.838847,108.7089 56.838847,90.000638 c 0,-6.618794 1.441312,-12.882666 4.026889,-18.500062 H 50.831804 V 57.183009 h 14.316393 v 6.984234 c 0.833385,-1.154208 1.719785,-2.267555 2.65882,-3.333189 v -3.651045 h 3.615609 c 0.791138,-0.710258 1.609853,-1.390486 2.45157,-2.042439 H 67.807017 V 40.823103 h 14.317466 v 9.272583 c 0.84245,-0.394621 1.701916,-0.759803 2.572915,-1.101758 v -8.170825 h 14.317464 v 5.165155 c 0.62338,-0.02585 1.249178,-0.04295 1.879218,-0.04295 0.23205,0 0.46253,0.0071 0.6937,0.01078 v -5.132937 h 14.31747 v 7.733773 c 1.69204,0.609769 3.33679,1.3166 4.92461,2.11868 l 8.19122,-15.515869 c -8.44498,-4.357132 -18.00406,-6.836046 -28.127,-6.836046 z M 135.3696,40.823103 V 55.14057 h 14.31748 V 40.823103 Z m -34.47552,7.865856 c -0.63012,0 -1.255748,0.01891 -1.879218,0.04725 v 6.404366 H 84.697398 v -3.116274 c -0.872856,0.375586 -1.731811,0.77728 -2.572915,1.210214 v 1.90606 h -3.313859 c -1.003872,0.640032 -1.979784,1.320809 -2.922985,2.042434 h 6.236844 V 71.500476 H 67.807017 v -6.155233 c -0.96132,1.284486 -1.849247,2.626873 -2.65882,4.019371 v 2.135862 H 63.988452 C 61.172119,77.074566 59.5825,83.3621 59.5825,90.000538 c 0,16.971612 10.387658,31.645652 25.114898,37.979452 v -5.37884 h 14.317464 v 8.66586 c 0.62324,0.0284 1.249348,0.0451 1.879218,0.0451 0.23193,0 0.46264,-0.005 0.6937,-0.01 v -8.70129 h 14.31747 v 5.86529 c 5.85658,-2.30701 11.07222,-5.91787 15.28392,-10.46991 l -12.84846,-11.927 c -0.75097,0.81604 -1.57705,1.5569 -2.43546,2.26042 v 12.23315 h -14.31747 v -6.90798 c -0.2329,0.007 -0.45903,0.0365 -0.6937,0.0365 -0.63284,0 -1.259608,-0.0244 -1.879218,-0.0719 v 6.94343 H 84.697398 v -13.1996 C 80.074221,103.0535 77.20309,96.894233 77.20309,90.000351 c 0,-13.188044 10.502945,-23.689916 23.69099,-23.689916 3.75418,0 7.27651,0.875086 10.41514,2.396804 l 8.20411,-15.53842 c -1.17172,-0.597063 -2.3767,-1.136787 -3.60808,-1.622568 v 3.594132 H 101.58778 V 48.69951 c -0.23111,-0.004 -0.4617,-0.01077 -0.6937,-0.01077 z m 17.58408,8.49405 v 14.317467 h 14.31746 V 57.183009 Z m 16.89144,0 v 14.317467 h 14.31748 V 57.183009 Z M 84.697398,73.534323 V 87.85179 H 99.014862 V 73.534323 Z m 16.890382,0 V 87.85179 h 14.31747 V 73.534323 Z M 84.697398,89.889934 V 104.2074 H 99.014862 V 89.889934 Z m 16.890382,0 V 104.2074 h 14.31747 V 89.889934 Z" /> </g> </svg>